<svg width="1440" height="283" viewBox="0 0 1440 283" fill="none" xmlns="http://www.w3.org/2000/svg">
<path fill-rule="evenodd" clip-rule="evenodd" d="M0 282.072L16.8 222.072C34.8 162.072 68.4 42.0722 103.2 24.0722C136.8 6.07217 171.6 90.0722 205.2 120.072C240 150.072 274.8 126.072 308.4 126.072C343.2 126.072 376.8 150.072 411.6 126.072C445.2 102.072 480 30.0722 514.8 36.0722C548.4 42.0722 583.2 126.072 616.8 180.072C651.6 234.072 685.2 258.072 720 216.072C754.8 174.072 788.4 66.0722 823.2 66.0722C856.8 66.0722 891.6 174.072 925.2 204.072C960 234.072 994.8 186.072 1028.4 180.072C1063.2 174.072 1096.8 210.072 1131.6 180.072C1165.2 150.072 1200 54.0722 1234.8 18.0722C1268.4 -17.9278 1303.2 6.07217 1336.8 36.0722C1371.6 66.0722 1405.2 102.072 1423.2 120.072L1440 138.072V282.072H1423.2C1405.2 282.072 1371.6 282.072 1336.8 282.072C1303.2 282.072 1268.4 282.072 1234.8 282.072C1200 282.072 1165.2 282.072 1131.6 282.072C1096.8 282.072 1063.2 282.072 1028.4 282.072C994.8 282.072 960 282.072 925.2 282.072C891.6 282.072 856.8 282.072 823.2 282.072C788.4 282.072 754.8 282.072 720 282.072C685.2 282.072 651.6 282.072 616.8 282.072C583.2 282.072 548.4 282.072 514.8 282.072C480 282.072 445.2 282.072 411.6 282.072C376.8 282.072 343.2 282.072 308.4 282.072C274.8 282.072 240 282.072 205.2 282.072C171.6 282.072 136.8 282.072 103.2 282.072C68.4 282.072 34.8 282.072 16.8 282.072H0Z" fill="#1D4289"/>
</svg>
