<svg width="4000" height="85" viewBox="0 0 4000 85" fill="none" xmlns="http://www.w3.org/2000/svg">
<path fill-rule="evenodd" clip-rule="evenodd" d="M0 60.6262L13.3333 53.4088C26.6667 46.1914 53.3333 31.7566 80 24.5392C110 17.3218 136.667 17.3218 163.333 27.4261C190 37.5305 216.667 57.7392 243.333 60.6262C273.333 63.5132 300 49.0783 326.667 46.1914C353.333 43.3044 380 51.9653 406.667 50.5218C436.667 49.0783 463.333 37.5305 490 33.2001C516.667 28.8696 543.333 31.7566 570 34.6435C600 37.5305 626.667 40.4175 653.333 49.0783C680 57.7392 706.667 72.174 733.333 79.3914C763.333 86.6089 790 86.6089 816.667 80.8349C843.333 75.061 870 63.5132 896.667 53.4088C926.667 43.3044 953.333 34.6435 980 25.9827C1006.67 17.3218 1033.33 8.66089 1060 5.77392C1090 2.88696 1116.67 5.77392 1143.33 20.2087C1170 34.6435 1196.67 60.6262 1223.33 70.7306C1253.33 80.8349 1280 75.061 1306.67 63.5132C1333.33 51.9653 1360 34.6435 1386.67 31.7566C1413.33 28.8696 1443.33 40.4175 1470 50.5218C1496.67 60.6262 1523.33 69.2871 1550 66.4001C1576.67 63.5132 1606.67 49.0783 1633.33 38.974C1660 28.8696 1686.67 23.0957 1713.33 28.8696C1740 34.6435 1770 51.9653 1796.67 53.4088C1823.33 54.8523 1850 40.4175 1876.67 30.3131C1903.33 20.2087 1933.33 14.4348 1960 12.9913C1986.67 11.5478 2013.33 14.4348 2040 23.0957C2066.67 31.7566 2096.67 46.1914 2123.33 56.2958C2150 66.4001 2176.67 72.174 2203.33 70.7306C2230 69.2871 2260 60.6262 2286.67 51.9653C2313.33 43.3044 2340 34.6435 2366.67 37.5305C2393.33 40.4175 2423.33 54.8523 2450 51.9653C2476.67 49.0783 2503.33 28.8696 2530 24.5392C2556.67 20.2087 2586.67 31.7566 2613.33 30.3131C2640 28.8696 2666.67 14.4348 2693.33 18.7653C2720 23.0957 2746.67 46.1914 2776.67 51.9653C2803.33 57.7392 2830 46.1914 2856.67 40.4175C2883.33 34.6435 2910 34.6435 2940 36.087C2966.67 37.5305 2993.33 40.4175 3020 40.4175C3046.67 40.4175 3073.33 37.5305 3103.33 44.7479C3130 51.9653 3156.67 69.2871 3183.33 73.6175C3210 77.948 3236.67 69.2871 3266.67 56.2958C3293.33 43.3044 3320 25.9827 3346.67 23.0957C3373.33 20.2087 3400 31.7566 3430 43.3044C3456.67 54.8523 3483.33 66.4001 3510 64.9566C3536.67 63.5132 3563.33 49.0783 3593.33 49.0783C3620 49.0783 3646.67 63.5132 3673.33 69.2871C3700 75.061 3726.67 72.174 3756.67 70.7306C3783.33 69.2871 3810 69.2871 3836.67 67.8436C3863.33 66.4001 3890 63.5132 3920 59.1827C3946.67 54.8523 3973.33 49.0783 3986.67 46.1914L4000 43.3044V0H3986.67C3973.33 0 3946.67 0 3920 0C3890 0 3863.33 0 3836.67 0C3810 0 3783.33 0 3756.67 0C3726.67 0 3700 0 3673.33 0C3646.67 0 3620 0 3593.33 0C3563.33 0 3536.67 0 3510 0C3483.33 0 3456.67 0 3430 0C3400 0 3373.33 0 3346.67 0C3320 0 3293.33 0 3266.67 0C3236.67 0 3210 0 3183.33 0C3156.67 0 3130 0 3103.33 0C3073.33 0 3046.67 0 3020 0C2993.33 0 2966.67 0 2940 0C2910 0 2883.33 0 2856.67 0C2830 0 2803.33 0 2776.67 0C2746.67 0 2720 0 2693.33 0C2666.67 0 2640 0 2613.33 0C2586.67 0 2556.67 0 2530 0C2503.33 0 2476.67 0 2450 0C2423.33 0 2393.33 0 2366.67 0C2340 0 2313.33 0 2286.67 0C2260 0 2230 0 2203.33 0C2176.67 0 2150 0 2123.33 0C2096.67 0 2066.67 0 2040 0C2013.33 0 1986.67 0 1960 0C1933.33 0 1903.33 0 1876.67 0C1850 0 1823.33 0 1796.67 0C1770 0 1740 0 1713.33 0C1686.67 0 1660 0 1633.33 0C1606.67 0 1576.67 0 1550 0C1523.33 0 1496.67 0 1470 0C1443.33 0 1413.33 0 1386.67 0C1360 0 1333.33 0 1306.67 0C1280 0 1253.33 0 1223.33 0C1196.67 0 1170 0 1143.33 0C1116.67 0 1090 0 1060 0C1033.33 0 1006.67 0 980 0C953.333 0 926.667 0 896.667 0C870 0 843.333 0 816.667 0C790 0 763.333 0 733.333 0C706.667 0 680 0 653.333 0C626.667 0 600 0 570 0C543.333 0 516.667 0 490 0C463.333 0 436.667 0 406.667 0C380 0 353.333 0 326.667 0C300 0 273.333 0 243.333 0C216.667 0 190 0 163.333 0C136.667 0 110 0 80 0C53.3333 0 26.6667 0 13.3333 0H0V60.6262Z" fill="white"/>
</svg>
