<svg width="4000" height="55" viewBox="0 0 4000 55" fill="none" xmlns="http://www.w3.org/2000/svg">
<path fill-rule="evenodd" clip-rule="evenodd" d="M0 39.2287L13.3333 34.5586C26.6667 29.8885 53.3333 20.5484 80 15.8783C110 11.2082 136.667 11.2082 163.333 17.7463C190 24.2844 216.667 37.3607 243.333 39.2287C273.333 41.0967 300 31.7566 326.667 29.8885C353.333 28.0205 380 33.6246 406.667 32.6906C436.667 31.7566 463.333 24.2844 490 21.4824C516.667 18.6803 543.333 20.5484 570 22.4164C600 24.2844 626.667 26.1525 653.333 31.7566C680 37.3607 706.667 46.7008 733.333 51.3709C763.333 56.041 790 56.041 816.667 52.305C843.333 48.5689 870 41.0967 896.667 34.5586C926.667 28.0205 953.333 22.4164 980 16.8123C1006.67 11.2082 1033.33 5.6041 1060 3.73607C1090 1.86803 1116.67 3.73607 1143.33 13.0762C1170 22.4164 1196.67 39.2287 1223.33 45.7668C1253.33 52.305 1280 48.5689 1306.67 41.0967C1333.33 33.6246 1360 22.4164 1386.67 20.5484C1413.33 18.6803 1443.33 26.1525 1470 32.6906C1496.67 39.2287 1523.33 44.8328 1550 42.9648C1576.67 41.0967 1606.67 31.7566 1633.33 25.2185C1660 18.6803 1686.67 14.9443 1713.33 18.6803C1740 22.4164 1770 33.6246 1796.67 34.5586C1823.33 35.4926 1850 26.1525 1876.67 19.6144C1903.33 13.0762 1933.33 9.34017 1960 8.40615C1986.67 7.47214 2013.33 9.34017 2040 14.9443C2066.67 20.5484 2096.67 29.8885 2123.33 36.4267C2150 42.9648 2176.67 46.7008 2203.33 45.7668C2230 44.8328 2260 39.2287 2286.67 33.6246C2313.33 28.0205 2340 22.4164 2366.67 24.2844C2393.33 26.1525 2423.33 35.4926 2450 33.6246C2476.67 31.7566 2503.33 18.6803 2530 15.8783C2556.67 13.0762 2586.67 20.5484 2613.33 19.6144C2640 18.6803 2666.67 9.34017 2693.33 12.1422C2720 14.9443 2746.67 29.8885 2776.67 33.6246C2803.33 37.3607 2830 29.8885 2856.67 26.1525C2883.33 22.4164 2910 22.4164 2940 23.3504C2966.67 24.2844 2993.33 26.1525 3020 26.1525C3046.67 26.1525 3073.33 24.2844 3103.33 28.9545C3130 33.6246 3156.67 44.8328 3183.33 47.6349C3210 50.4369 3236.67 44.8328 3266.67 36.4267C3293.33 28.0205 3320 16.8123 3346.67 14.9443C3373.33 13.0762 3400 20.5484 3430 28.0205C3456.67 35.4926 3483.33 42.9648 3510 42.0308C3536.67 41.0967 3563.33 31.7566 3593.33 31.7566C3620 31.7566 3646.67 41.0967 3673.33 44.8328C3700 48.5689 3726.67 46.7008 3756.67 45.7668C3783.33 44.8328 3810 44.8328 3836.67 43.8988C3863.33 42.9648 3890 41.0967 3920 38.2947C3946.67 35.4926 3973.33 31.7566 3986.67 29.8885L4000 28.0205V0H3986.67C3973.33 0 3946.67 0 3920 0C3890 0 3863.33 0 3836.67 0C3810 0 3783.33 0 3756.67 0C3726.67 0 3700 0 3673.33 0C3646.67 0 3620 0 3593.33 0C3563.33 0 3536.67 0 3510 0C3483.33 0 3456.67 0 3430 0C3400 0 3373.33 0 3346.67 0C3320 0 3293.33 0 3266.67 0C3236.67 0 3210 0 3183.33 0C3156.67 0 3130 0 3103.33 0C3073.33 0 3046.67 0 3020 0C2993.33 0 2966.67 0 2940 0C2910 0 2883.33 0 2856.67 0C2830 0 2803.33 0 2776.67 0C2746.67 0 2720 0 2693.33 0C2666.67 0 2640 0 2613.33 0C2586.67 0 2556.67 0 2530 0C2503.33 0 2476.67 0 2450 0C2423.33 0 2393.33 0 2366.67 0C2340 0 2313.33 0 2286.67 0C2260 0 2230 0 2203.33 0C2176.67 0 2150 0 2123.33 0C2096.67 0 2066.67 0 2040 0C2013.33 0 1986.67 0 1960 0C1933.33 0 1903.33 0 1876.67 0C1850 0 1823.33 0 1796.67 0C1770 0 1740 0 1713.33 0C1686.67 0 1660 0 1633.33 0C1606.67 0 1576.67 0 1550 0C1523.33 0 1496.67 0 1470 0C1443.33 0 1413.33 0 1386.67 0C1360 0 1333.33 0 1306.67 0C1280 0 1253.33 0 1223.33 0C1196.67 0 1170 0 1143.33 0C1116.67 0 1090 0 1060 0C1033.33 0 1006.67 0 980 0C953.333 0 926.667 0 896.667 0C870 0 843.333 0 816.667 0C790 0 763.333 0 733.333 0C706.667 0 680 0 653.333 0C626.667 0 600 0 570 0C543.333 0 516.667 0 490 0C463.333 0 436.667 0 406.667 0C380 0 353.333 0 326.667 0C300 0 273.333 0 243.333 0C216.667 0 190 0 163.333 0C136.667 0 110 0 80 0C53.3333 0 26.6667 0 13.3333 0H0V39.2287Z" fill="white"/>
</svg>
