<svg width="375" height="206" viewBox="0 0 375 206" fill="none" xmlns="http://www.w3.org/2000/svg">
<path fill-rule="evenodd" clip-rule="evenodd" d="M0 62.3991L10.3125 44.3991C20.9375 26.3991 41.5625 -9.60088 62.5 2.39912C83.4375 14.3991 104.062 74.3991 125 86.3991C145.938 98.3991 166.562 62.3991 187.5 62.3991C208.438 62.3991 229.062 98.3991 250 104.399C270.938 110.399 291.562 86.3991 312.5 74.3991C333.438 62.3991 354.062 62.3991 364.688 62.3991H375V206.399H364.688C354.062 206.399 333.438 206.399 312.5 206.399C291.562 206.399 270.938 206.399 250 206.399C229.062 206.399 208.438 206.399 187.5 206.399C166.562 206.399 145.938 206.399 125 206.399C104.062 206.399 83.4375 206.399 62.5 206.399C41.5625 206.399 20.9375 206.399 10.3125 206.399H0V62.3991Z" fill="#1D4289"/>
</svg>
