<svg width="4000" height="55" viewBox="0 0 4000 55" fill="none" xmlns="http://www.w3.org/2000/svg">
<path fill-rule="evenodd" clip-rule="evenodd" d="M0 53.3852L14 44.4876C27 35.5901 54 17.7951 82 10.8748C109 3.95446 136 7.90891 163 13.8406C190 19.7723 218 27.6812 245 31.6356C272 35.5901 299 35.5901 327 38.5559C354 41.5218 381 47.4535 408 43.499C435 39.5446 463 25.704 490 26.6926C517 27.6812 544 43.499 571 48.4421C599 53.3852 626 47.4535 653 39.5446C680 31.6356 707 21.7495 735 24.7154C762 27.6812 789 43.499 816 50.4193C844 57.3396 871 55.3624 898 51.4079C925 47.4535 952 41.5218 980 35.5901C1007 29.6584 1034 23.7267 1061 18.7837C1088 13.8406 1116 9.88614 1143 8.89753C1170 7.90891 1197 9.88614 1224 14.8292C1252 19.7723 1279 27.6812 1306 31.6356C1333 35.5901 1361 35.5901 1388 32.6243C1415 29.6584 1442 23.7267 1469 22.7381C1497 21.7495 1524 25.704 1551 30.647C1578 35.5901 1605 41.5218 1633 44.4876C1660 47.4535 1687 47.4535 1714 47.4535C1741 47.4535 1769 47.4535 1796 42.5104C1823 37.5673 1850 27.6812 1878 21.7495C1905 15.8178 1932 13.8406 1959 15.8178C1986 17.7951 2014 23.7267 2041 21.7495C2068 19.7723 2095 9.88614 2122 11.8634C2150 13.8406 2177 27.6812 2204 28.6698C2231 29.6584 2259 17.7951 2286 16.8064C2313 15.8178 2340 25.704 2367 30.647C2395 35.5901 2422 35.5901 2449 35.5901C2476 35.5901 2503 35.5901 2531 31.6356C2558 27.6812 2585 19.7723 2612 20.7609C2639 21.7495 2667 31.6356 2694 34.6015C2721 37.5673 2748 33.6129 2776 33.6129C2803 33.6129 2830 37.5673 2857 35.5901C2884 33.6129 2912 25.704 2939 26.6926C2966 27.6812 2993 37.5673 3020 40.5332C3048 43.499 3075 39.5446 3102 34.6015C3129 29.6584 3156 23.7267 3184 23.7267C3211 23.7267 3238 29.6584 3265 35.5901C3293 41.5218 3320 47.4535 3347 45.4762C3374 43.499 3401 33.6129 3429 29.6584C3456 25.704 3483 27.6812 3510 32.6243C3537 37.5673 3565 45.4762 3592 48.4421C3619 51.4079 3646 49.4307 3673 46.4649C3701 43.499 3728 39.5446 3755 38.5559C3782 37.5673 3810 39.5446 3837 39.5446C3864 39.5446 3891 37.5673 3918 33.6129C3946 29.6584 3973 23.7267 3986 20.7609L4000 17.7951V0H3986C3973 0 3946 0 3918 0C3891 0 3864 0 3837 0C3810 0 3782 0 3755 0C3728 0 3701 0 3673 0C3646 0 3619 0 3592 0C3565 0 3537 0 3510 0C3483 0 3456 0 3429 0C3401 0 3374 0 3347 0C3320 0 3293 0 3265 0C3238 0 3211 0 3184 0C3156 0 3129 0 3102 0C3075 0 3048 0 3020 0C2993 0 2966 0 2939 0C2912 0 2884 0 2857 0C2830 0 2803 0 2776 0C2748 0 2721 0 2694 0C2667 0 2639 0 2612 0C2585 0 2558 0 2531 0C2503 0 2476 0 2449 0C2422 0 2395 0 2367 0C2340 0 2313 0 2286 0C2259 0 2231 0 2204 0C2177 0 2150 0 2122 0C2095 0 2068 0 2041 0C2014 0 1986 0 1959 0C1932 0 1905 0 1878 0C1850 0 1823 0 1796 0C1769 0 1741 0 1714 0C1687 0 1660 0 1633 0C1605 0 1578 0 1551 0C1524 0 1497 0 1469 0C1442 0 1415 0 1388 0C1361 0 1333 0 1306 0C1279 0 1252 0 1224 0C1197 0 1170 0 1143 0C1116 0 1088 0 1061 0C1034 0 1007 0 980 0C952 0 925 0 898 0C871 0 844 0 816 0C789 0 762 0 735 0C707 0 680 0 653 0C626 0 599 0 571 0C544 0 517 0 490 0C463 0 435 0 408 0C381 0 354 0 327 0C299 0 272 0 245 0C218 0 190 0 163 0C136 0 109 0 82 0C54 0 27 0 14 0H0V53.3852Z" fill="#FFF"/>
</svg>
